<svg width="68" height="65" viewBox="0 0 68 65" fill="none" xmlns="http://www.w3.org/2000/svg">
<g clip-path="url(#clip0)">
<path d="M67.8593 33.1081C67.8593 30.4451 67.6406 28.5018 67.1673 26.4866H36.3911V38.5061H54.456C54.092 41.4931 52.1252 45.9915 47.7545 49.0143L47.6933 49.4167L57.4241 56.8651L58.0983 56.9316C64.2899 51.2816 67.8593 42.9685 67.8593 33.1081Z" fill="#4285F4"/>
<path d="M36.3924 64.7769C45.2427 64.7769 52.6726 61.8978 58.0996 56.9318L47.7558 49.0144C44.9878 50.9218 41.2728 52.2533 36.3924 52.2533C27.7241 52.2533 20.367 46.6035 17.7444 38.7943L17.36 38.8266L7.2417 46.5638L7.10938 46.9272C12.4997 57.5074 23.5719 64.7769 36.3924 64.7769Z" fill="#34A853"/>
<path d="M17.7432 38.7937C17.0512 36.7785 16.6508 34.6191 16.6508 32.388C16.6508 30.1566 17.0512 27.9975 17.7068 25.9823L17.6885 25.5531L7.4434 17.6915L7.1082 17.8491C4.88658 22.2395 3.61182 27.1699 3.61182 32.388C3.61182 37.6061 4.88658 42.5362 7.1082 46.9266L17.7432 38.7937Z" fill="#FBBC05"/>
<path d="M36.3924 12.5234C42.5475 12.5234 46.6995 15.1505 49.067 17.3458L58.318 8.42097C52.6364 3.20286 45.2427 0 36.3924 0C23.5719 0 12.4997 7.26933 7.10938 17.8494L17.708 25.9826C20.367 18.1735 27.7241 12.5234 36.3924 12.5234Z" fill="#EB4335"/>
</g>
<defs>
<clipPath id="clip0">
<rect width="67.8928" height="65" fill="white"/>
</clipPath>
</defs>
</svg>
